<?xml version="1.0" standalone="no"?>
<!DOCTYPE svg PUBLIC "-//W3C//DTD SVG 20010904//EN"
 "http://www.w3.org/TR/2001/REC-SVG-20010904/DTD/svg10.dtd">
<svg version="1.0" xmlns="http://www.w3.org/2000/svg"
 width="1200.000000pt" height="1200.000000pt" viewBox="0 0 1200.000000 1200.000000"
 preserveAspectRatio="xMidYMid meet">
<metadata>
Created by potrace 1.14, written by Peter Selinger 2001-2017
</metadata>
<g transform="translate(0.000000,1200.000000) scale(0.100000,-0.100000)"
fill="#000000" stroke="none">
<path d="M5698 11995 c-2 -2 -55 -6 -118 -10 -63 -3 -128 -8 -145 -10 -16 -2
-55 -7 -85 -10 -30 -3 -66 -7 -80 -9 -14 -3 -50 -7 -81 -11 -31 -3 -67 -8 -80
-10 -13 -3 -41 -7 -64 -10 -77 -11 -261 -46 -370 -72 -60 -13 -117 -26 -126
-28 -108 -22 -658 -195 -684 -215 -5 -4 -21 -11 -35 -15 -107 -31 -536 -231
-735 -342 -386 -216 -817 -522 -1094 -777 -497 -458 -834 -867 -1155 -1401
-84 -140 -109 -186 -214 -395 -157 -313 -272 -599 -368 -915 -67 -218 -98
-343 -150 -590 -9 -48 -14 -72 -19 -105 -3 -19 -10 -60 -15 -90 -18 -103 -18
-104 -35 -240 -3 -19 -7 -62 -10 -95 -4 -33 -8 -74 -10 -91 -27 -201 -27 -836
1 -1104 2 -25 6 -65 9 -90 2 -25 6 -61 9 -80 3 -19 8 -57 11 -85 11 -89 15
-116 29 -195 3 -19 8 -46 10 -60 11 -61 47 -233 66 -315 12 -49 24 -97 25
-105 13 -56 81 -287 118 -400 139 -420 300 -772 546 -1192 42 -71 158 -252
212 -328 33 -47 67 -96 77 -110 9 -14 25 -37 37 -51 11 -14 31 -41 45 -59 30
-40 136 -175 166 -210 286 -336 550 -594 869 -851 606 -487 1339 -865 2090
-1079 151 -43 391 -101 478 -115 18 -3 39 -8 47 -10 15 -4 28 -7 140 -24 36
-6 75 -13 87 -15 12 -3 48 -7 80 -11 32 -3 65 -7 73 -10 8 -2 47 -7 85 -10 39
-4 84 -9 100 -10 140 -15 296 -20 565 -20 305 0 416 5 605 25 50 6 113 12 140
15 28 3 61 8 75 10 14 3 43 7 65 10 37 4 335 58 380 69 11 2 49 11 85 19 128
30 230 57 347 92 65 20 123 37 128 39 6 2 17 6 25 9 8 3 62 21 120 40 58 19
119 40 135 47 17 7 39 16 50 20 493 192 966 451 1385 759 120 88 262 201 324
256 6 6 40 35 76 65 119 101 376 351 465 451 17 19 62 70 101 114 56 64 189
226 257 315 402 522 728 1143 937 1785 28 88 54 169 56 180 2 11 13 52 24 90
30 102 96 395 115 505 9 52 18 106 20 120 11 58 44 322 50 390 16 185 20 289
20 565 0 286 -8 504 -20 575 -3 14 -7 50 -10 80 -3 30 -10 87 -15 125 -5 39
-12 90 -15 115 -7 48 -12 80 -20 120 -3 14 -8 41 -11 60 -65 388 -215 888
-384 1280 -68 159 -231 490 -273 557 -15 24 -27 45 -27 47 0 3 -31 56 -69 119
-400 662 -919 1242 -1520 1697 -18 14 -45 34 -59 45 -96 74 -472 325 -487 325
-3 0 -24 12 -48 27 -219 140 -669 351 -1012 475 -199 71 -652 199 -788 222
-53 9 -88 16 -167 32 -41 8 -93 17 -115 20 -22 2 -67 9 -100 14 -77 12 -209
27 -305 35 -41 4 -97 9 -125 11 -56 6 -712 13 -717 9z"/>
</g>
</svg>
